STARTFONT 2.1
COMMENT 94.8.25 7-bit part (ASCII) taken from etl16-latin1.bdf
COMMENT         8-bit part (Thai) created by Manop Wongsaisuwan
COMMENT 2000/04/18 some glyphs modified by Theppitak Karoonboonyanan
FONT -etl-fixed-medium-r-normal--16-160-72-72-m-80-tis620-0
SIZE 16 72 72
FONTBOUNDINGBOX 8 19 0 -3
STARTPROPERTIES 24
FOUNDRY "etl"
FAMILY_NAME "fixed"
WEIGHT_NAME "medium"
SLANT "r"
SETWIDTH_NAME "normal"
ADD_STYLE_NAME ""
PIXEL_SIZE 16
POINT_SIZE 160
RESOLUTION_X 72
RESOLUTION_Y 72
SPACING "m"
AVERAGE_WIDTH 80
CHARSET_REGISTRY "tis620"
CHARSET_ENCODING "0"
STRIKEOUT_ASCENT 16
STRIKEOUT_DESCENT 3
X_HEIGHT 8
FACE_NAME "Thai typewriter (16dots)"
COPYRIGHT "Public domain font.  Share and enjoy."
FONT_ASCENT 16
FONT_DESCENT 3
DEFAULT_CHAR 32
_MULE_RELATIVE_COMPOSE 10
_XMBDFED_INFO "Edited with xmbdfed 3.8."
ENDPROPERTIES
CHARS 182
STARTCHAR C040
ENCODING 32
SWIDTH 500 0
DWIDTH 8 0
BBX 0 0 0 0
BITMAP
ENDCHAR
STARTCHAR !
ENCODING 33
SWIDTH 500 0
DWIDTH 8 0
BBX 1 10 4 0
BITMAP
80
80
80
80
80
80
80
00
80
80
ENDCHAR
STARTCHAR "
ENCODING 34
SWIDTH 500 0
DWIDTH 8 0
BBX 6 4 1 8
BITMAP
CC
44
44
88
ENDCHAR
STARTCHAR #
ENCODING 35
SWIDTH 500 0
DWIDTH 8 0
BBX 6 10 1 0
BITMAP
24
24
24
FC
48
48
FC
90
90
90
ENDCHAR
STARTCHAR $
ENCODING 36
SWIDTH 500 0
DWIDTH 8 0
BBX 7 10 1 0
BITMAP
10
7C
92
90
70
1C
12
92
7C
10
ENDCHAR
STARTCHAR %
ENCODING 37
SWIDTH 500 0
DWIDTH 8 0
BBX 7 10 1 0
BITMAP
62
94
94
68
10
10
2C
52
52
8C
ENDCHAR
STARTCHAR &
ENCODING 38
SWIDTH 500 0
DWIDTH 8 0
BBX 7 10 1 0
BITMAP
38
44
44
44
38
72
8A
84
8C
72
ENDCHAR
STARTCHAR '
ENCODING 39
SWIDTH 500 0
DWIDTH 8 0
BBX 2 4 3 8
BITMAP
C0
40
40
80
ENDCHAR
STARTCHAR (
ENCODING 40
SWIDTH 500 0
DWIDTH 8 0
BBX 3 12 3 -1
BITMAP
20
40
40
80
80
80
80
80
80
40
40
20
ENDCHAR
STARTCHAR )
ENCODING 41
SWIDTH 500 0
DWIDTH 8 0
BBX 3 12 2 -1
BITMAP
80
40
40
20
20
20
20
20
20
40
40
80
ENDCHAR
STARTCHAR *
ENCODING 42
SWIDTH 500 0
DWIDTH 8 0
BBX 7 7 1 1
BITMAP
10
92
54
38
54
92
10
ENDCHAR
STARTCHAR +
ENCODING 43
SWIDTH 500 0
DWIDTH 8 0
BBX 7 7 1 1
BITMAP
10
10
10
FE
10
10
10
ENDCHAR
STARTCHAR ,
ENCODING 44
SWIDTH 500 0
DWIDTH 8 0
BBX 2 4 3 -2
BITMAP
C0
40
40
80
ENDCHAR
STARTCHAR -
ENCODING 45
SWIDTH 500 0
DWIDTH 8 0
BBX 6 1 1 4
BITMAP
FC
ENDCHAR
STARTCHAR .
ENCODING 46
SWIDTH 500 0
DWIDTH 8 0
BBX 2 2 3 0
BITMAP
C0
C0
ENDCHAR
STARTCHAR /
ENCODING 47
SWIDTH 500 0
DWIDTH 8 0
BBX 6 10 1 0
BITMAP
04
04
08
10
10
20
20
40
80
80
ENDCHAR
STARTCHAR 0
ENCODING 48
SWIDTH 500 0
DWIDTH 8 0
BBX 6 10 1 0
BITMAP
30
48
84
84
84
84
84
84
48
30
ENDCHAR
STARTCHAR 1
ENCODING 49
SWIDTH 500 0
DWIDTH 8 0
BBX 5 10 2 0
BITMAP
20
60
A0
20
20
20
20
20
20
F8
ENDCHAR
STARTCHAR 2
ENCODING 50
SWIDTH 500 0
DWIDTH 8 0
BBX 6 10 1 0
BITMAP
78
84
84
04
18
20
40
80
80
FC
ENDCHAR
STARTCHAR 3
ENCODING 51
SWIDTH 500 0
DWIDTH 8 0
BBX 6 10 1 0
BITMAP
78
84
84
04
38
04
04
84
84
78
ENDCHAR
STARTCHAR 4
ENCODING 52
SWIDTH 500 0
DWIDTH 8 0
BBX 6 10 1 0
BITMAP
08
18
28
48
88
88
FC
08
08
08
ENDCHAR
STARTCHAR 5
ENCODING 53
SWIDTH 500 0
DWIDTH 8 0
BBX 6 10 1 0
BITMAP
FC
80
80
80
F8
04
04
04
84
78
ENDCHAR
STARTCHAR 6
ENCODING 54
SWIDTH 500 0
DWIDTH 8 0
BBX 6 10 1 0
BITMAP
38
40
80
80
F8
84
84
84
84
78
ENDCHAR
STARTCHAR 7
ENCODING 55
SWIDTH 500 0
DWIDTH 8 0
BBX 6 10 1 0
BITMAP
FC
04
04
08
08
08
10
10
10
10
ENDCHAR
STARTCHAR 8
ENCODING 56
SWIDTH 500 0
DWIDTH 8 0
BBX 6 10 1 0
BITMAP
78
84
84
84
78
84
84
84
84
78
ENDCHAR
STARTCHAR 9
ENCODING 57
SWIDTH 500 0
DWIDTH 8 0
BBX 6 10 1 0
BITMAP
78
84
84
84
7C
04
04
04
08
70
ENDCHAR
STARTCHAR :
ENCODING 58
SWIDTH 500 0
DWIDTH 8 0
BBX 2 7 3 1
BITMAP
C0
C0
00
00
00
C0
C0
ENDCHAR
STARTCHAR ;
ENCODING 59
SWIDTH 500 0
DWIDTH 8 0
BBX 2 9 3 -1
BITMAP
C0
C0
00
00
00
C0
40
40
80
ENDCHAR
STARTCHAR <
ENCODING 60
SWIDTH 500 0
DWIDTH 8 0
BBX 5 9 2 0
BITMAP
08
10
20
40
80
40
20
10
08
ENDCHAR
STARTCHAR =
ENCODING 61
SWIDTH 500 0
DWIDTH 8 0
BBX 6 5 1 2
BITMAP
FC
00
00
00
FC
ENDCHAR
STARTCHAR >
ENCODING 62
SWIDTH 500 0
DWIDTH 8 0
BBX 5 9 1 0
BITMAP
80
40
20
10
08
10
20
40
80
ENDCHAR
STARTCHAR ?
ENCODING 63
SWIDTH 500 0
DWIDTH 8 0
BBX 6 10 1 0
BITMAP
78
84
84
04
08
10
10
00
10
10
ENDCHAR
STARTCHAR @
ENCODING 64
SWIDTH 500 0
DWIDTH 8 0
BBX 6 10 1 0
BITMAP
38
44
94
AC
A4
A4
A4
9C
40
3C
ENDCHAR
STARTCHAR A
ENCODING 65
SWIDTH 500 0
DWIDTH 8 0
BBX 6 10 1 0
BITMAP
30
48
48
84
84
FC
84
84
84
84
ENDCHAR
STARTCHAR B
ENCODING 66
SWIDTH 500 0
DWIDTH 8 0
BBX 6 10 1 0
BITMAP
F8
84
84
84
F8
84
84
84
84
F8
ENDCHAR
STARTCHAR C
ENCODING 67
SWIDTH 500 0
DWIDTH 8 0
BBX 6 10 1 0
BITMAP
78
84
84
80
80
80
80
84
84
78
ENDCHAR
STARTCHAR D
ENCODING 68
SWIDTH 500 0
DWIDTH 8 0
BBX 6 10 1 0
BITMAP
F0
88
84
84
84
84
84
84
88
F0
ENDCHAR
STARTCHAR E
ENCODING 69
SWIDTH 500 0
DWIDTH 8 0
BBX 6 10 1 0
BITMAP
FC
80
80
80
F8
80
80
80
80
FC
ENDCHAR
STARTCHAR F
ENCODING 70
SWIDTH 500 0
DWIDTH 8 0
BBX 6 10 1 0
BITMAP
FC
80
80
80
F8
80
80
80
80
80
ENDCHAR
STARTCHAR G
ENCODING 71
SWIDTH 500 0
DWIDTH 8 0
BBX 6 10 1 0
BITMAP
78
84
84
80
80
9C
84
84
8C
74
ENDCHAR
STARTCHAR H
ENCODING 72
SWIDTH 500 0
DWIDTH 8 0
BBX 6 10 1 0
BITMAP
84
84
84
84
FC
84
84
84
84
84
ENDCHAR
STARTCHAR I
ENCODING 73
SWIDTH 500 0
DWIDTH 8 0
BBX 5 10 2 0
BITMAP
F8
20
20
20
20
20
20
20
20
F8
ENDCHAR
STARTCHAR J
ENCODING 74
SWIDTH 500 0
DWIDTH 8 0
BBX 7 10 1 0
BITMAP
3E
08
08
08
08
08
08
88
88
70
ENDCHAR
STARTCHAR K
ENCODING 75
SWIDTH 500 0
DWIDTH 8 0
BBX 6 10 1 0
BITMAP
84
88
90
A0
C0
C0
A0
90
88
84
ENDCHAR
STARTCHAR L
ENCODING 76
SWIDTH 500 0
DWIDTH 8 0
BBX 6 10 1 0
BITMAP
80
80
80
80
80
80
80
80
80
FC
ENDCHAR
STARTCHAR M
ENCODING 77
SWIDTH 500 0
DWIDTH 8 0
BBX 6 10 1 0
BITMAP
84
84
CC
CC
B4
B4
84
84
84
84
ENDCHAR
STARTCHAR N
ENCODING 78
SWIDTH 500 0
DWIDTH 8 0
BBX 6 10 1 0
BITMAP
84
C4
C4
A4
A4
94
94
8C
8C
84
ENDCHAR
STARTCHAR O
ENCODING 79
SWIDTH 500 0
DWIDTH 8 0
BBX 6 10 1 0
BITMAP
78
84
84
84
84
84
84
84
84
78
ENDCHAR
STARTCHAR P
ENCODING 80
SWIDTH 500 0
DWIDTH 8 0
BBX 6 10 1 0
BITMAP
F8
84
84
84
F8
80
80
80
80
80
ENDCHAR
STARTCHAR Q
ENCODING 81
SWIDTH 500 0
DWIDTH 8 0
BBX 7 11 1 -1
BITMAP
78
84
84
84
84
84
84
B4
CC
78
06
ENDCHAR
STARTCHAR R
ENCODING 82
SWIDTH 500 0
DWIDTH 8 0
BBX 6 10 1 0
BITMAP
F8
84
84
84
F8
90
88
88
84
84
ENDCHAR
STARTCHAR S
ENCODING 83
SWIDTH 500 0
DWIDTH 8 0
BBX 6 10 1 0
BITMAP
78
84
84
80
60
18
04
84
84
78
ENDCHAR
STARTCHAR T
ENCODING 84
SWIDTH 500 0
DWIDTH 8 0
BBX 7 10 1 0
BITMAP
FE
10
10
10
10
10
10
10
10
10
ENDCHAR
STARTCHAR U
ENCODING 85
SWIDTH 500 0
DWIDTH 8 0
BBX 6 10 1 0
BITMAP
84
84
84
84
84
84
84
84
84
78
ENDCHAR
STARTCHAR V
ENCODING 86
SWIDTH 500 0
DWIDTH 8 0
BBX 7 10 1 0
BITMAP
82
82
82
44
44
44
28
28
10
10
ENDCHAR
STARTCHAR W
ENCODING 87
SWIDTH 500 0
DWIDTH 8 0
BBX 6 10 1 0
BITMAP
84
84
84
84
B4
B4
CC
CC
84
84
ENDCHAR
STARTCHAR X
ENCODING 88
SWIDTH 500 0
DWIDTH 8 0
BBX 6 10 1 0
BITMAP
84
84
48
48
30
30
48
48
84
84
ENDCHAR
STARTCHAR Y
ENCODING 89
SWIDTH 500 0
DWIDTH 8 0
BBX 7 10 1 0
BITMAP
82
82
44
44
28
10
10
10
10
10
ENDCHAR
STARTCHAR Z
ENCODING 90
SWIDTH 500 0
DWIDTH 8 0
BBX 6 10 1 0
BITMAP
FC
04
04
08
10
20
40
80
80
FC
ENDCHAR
STARTCHAR [
ENCODING 91
SWIDTH 500 0
DWIDTH 8 0
BBX 3 12 4 -1
BITMAP
E0
80
80
80
80
80
80
80
80
80
80
E0
ENDCHAR
STARTCHAR \
ENCODING 92
SWIDTH 500 0
DWIDTH 8 0
BBX 6 10 1 0
BITMAP
80
80
40
20
20
10
10
08
04
04
ENDCHAR
STARTCHAR ]
ENCODING 93
SWIDTH 500 0
DWIDTH 8 0
BBX 3 12 1 -1
BITMAP
E0
20
20
20
20
20
20
20
20
20
20
E0
ENDCHAR
STARTCHAR ^
ENCODING 94
SWIDTH 500 0
DWIDTH 8 0
BBX 6 3 1 9
BITMAP
30
48
84
ENDCHAR
STARTCHAR _
ENCODING 95
SWIDTH 500 0
DWIDTH 8 0
BBX 7 1 1 -1
BITMAP
FE
ENDCHAR
STARTCHAR `
ENCODING 96
SWIDTH 500 0
DWIDTH 8 0
BBX 2 4 3 8
BITMAP
C0
80
80
40
ENDCHAR
STARTCHAR a
ENCODING 97
SWIDTH 500 0
DWIDTH 8 0
BBX 6 8 1 0
BITMAP
78
84
04
7C
84
84
8C
74
ENDCHAR
STARTCHAR b
ENCODING 98
SWIDTH 500 0
DWIDTH 8 0
BBX 6 11 1 0
BITMAP
80
80
80
B8
C4
84
84
84
84
C4
B8
ENDCHAR
STARTCHAR c
ENCODING 99
SWIDTH 500 0
DWIDTH 8 0
BBX 6 8 1 0
BITMAP
78
84
80
80
80
80
84
78
ENDCHAR
STARTCHAR d
ENCODING 100
SWIDTH 500 0
DWIDTH 8 0
BBX 6 11 1 0
BITMAP
04
04
04
74
8C
84
84
84
84
8C
74
ENDCHAR
STARTCHAR e
ENCODING 101
SWIDTH 500 0
DWIDTH 8 0
BBX 6 8 1 0
BITMAP
78
84
84
FC
80
80
84
78
ENDCHAR
STARTCHAR f
ENCODING 102
SWIDTH 500 0
DWIDTH 8 0
BBX 5 11 1 0
BITMAP
18
20
20
20
F8
20
20
20
20
20
20
ENDCHAR
STARTCHAR g
ENCODING 103
SWIDTH 500 0
DWIDTH 8 0
BBX 6 11 1 -2
BITMAP
04
74
88
88
88
70
40
78
84
84
78
ENDCHAR
STARTCHAR h
ENCODING 104
SWIDTH 500 0
DWIDTH 8 0
BBX 6 11 1 0
BITMAP
80
80
80
B8
C4
84
84
84
84
84
84
ENDCHAR
STARTCHAR i
ENCODING 105
SWIDTH 500 0
DWIDTH 8 0
BBX 5 11 2 0
BITMAP
20
20
00
60
20
20
20
20
20
20
F8
ENDCHAR
STARTCHAR j
ENCODING 106
SWIDTH 500 0
DWIDTH 8 0
BBX 5 13 1 -2
BITMAP
08
08
00
18
08
08
08
08
08
08
08
90
60
ENDCHAR
STARTCHAR k
ENCODING 107
SWIDTH 500 0
DWIDTH 8 0
BBX 6 10 1 0
BITMAP
80
80
88
90
A0
C0
A0
90
88
84
ENDCHAR
STARTCHAR l
ENCODING 108
SWIDTH 500 0
DWIDTH 8 0
BBX 5 10 2 0
BITMAP
60
20
20
20
20
20
20
20
20
F8
ENDCHAR
STARTCHAR m
ENCODING 109
SWIDTH 500 0
DWIDTH 8 0
BBX 7 8 1 0
BITMAP
EC
92
92
92
92
92
92
92
ENDCHAR
STARTCHAR n
ENCODING 110
SWIDTH 500 0
DWIDTH 8 0
BBX 6 8 1 0
BITMAP
B8
C4
84
84
84
84
84
84
ENDCHAR
STARTCHAR o
ENCODING 111
SWIDTH 500 0
DWIDTH 8 0
BBX 6 8 1 0
BITMAP
78
84
84
84
84
84
84
78
ENDCHAR
STARTCHAR p
ENCODING 112
SWIDTH 500 0
DWIDTH 8 0
BBX 6 10 1 -2
BITMAP
B8
C4
84
84
84
84
C4
B8
80
80
ENDCHAR
STARTCHAR q
ENCODING 113
SWIDTH 500 0
DWIDTH 8 0
BBX 6 10 1 -2
BITMAP
74
8C
84
84
84
84
8C
74
04
04
ENDCHAR
STARTCHAR r
ENCODING 114
SWIDTH 500 0
DWIDTH 8 0
BBX 6 8 1 0
BITMAP
B8
C4
84
80
80
80
80
80
ENDCHAR
STARTCHAR s
ENCODING 115
SWIDTH 500 0
DWIDTH 8 0
BBX 6 8 1 0
BITMAP
78
84
80
60
18
04
84
78
ENDCHAR
STARTCHAR t
ENCODING 116
SWIDTH 500 0
DWIDTH 8 0
BBX 5 10 1 0
BITMAP
20
20
F8
20
20
20
20
20
20
18
ENDCHAR
STARTCHAR u
ENCODING 117
SWIDTH 500 0
DWIDTH 8 0
BBX 6 8 1 0
BITMAP
84
84
84
84
84
84
8C
74
ENDCHAR
STARTCHAR v
ENCODING 118
SWIDTH 500 0
DWIDTH 8 0
BBX 6 8 1 0
BITMAP
84
84
84
48
48
48
30
30
ENDCHAR
STARTCHAR w
ENCODING 119
SWIDTH 500 0
DWIDTH 8 0
BBX 7 8 1 0
BITMAP
82
92
92
92
92
92
92
6C
ENDCHAR
STARTCHAR x
ENCODING 120
SWIDTH 500 0
DWIDTH 8 0
BBX 6 8 1 0
BITMAP
84
84
48
30
30
48
84
84
ENDCHAR
STARTCHAR y
ENCODING 121
SWIDTH 500 0
DWIDTH 8 0
BBX 6 10 1 -2
BITMAP
84
84
84
84
84
4C
34
04
04
78
ENDCHAR
STARTCHAR z
ENCODING 122
SWIDTH 500 0
DWIDTH 8 0
BBX 6 8 1 0
BITMAP
FC
04
08
10
20
40
80
FC
ENDCHAR
STARTCHAR {
ENCODING 123
SWIDTH 500 0
DWIDTH 8 0
BBX 3 12 3 -1
BITMAP
60
80
80
40
40
80
80
40
40
80
80
60
ENDCHAR
STARTCHAR |
ENCODING 124
SWIDTH 500 0
DWIDTH 8 0
BBX 1 14 4 -2
BITMAP
80
80
80
80
80
80
80
80
80
80
80
80
80
80
ENDCHAR
STARTCHAR }
ENCODING 125
SWIDTH 500 0
DWIDTH 8 0
BBX 3 12 2 -1
BITMAP
C0
20
20
40
40
20
20
40
40
20
20
C0
ENDCHAR
STARTCHAR ~
ENCODING 126
SWIDTH 500 0
DWIDTH 8 0
BBX 7 3 1 8
BITMAP
62
92
8C
ENDCHAR
STARTCHAR KO_KAI
ENCODING 161
SWIDTH 500 0
DWIDTH 8 0
BBX 8 8 0 0
BITMAP
3C
42
62
22
22
22
22
22
ENDCHAR
STARTCHAR KHO_KHAI
ENCODING 162
SWIDTH 500 0
DWIDTH 8 0
BBX 8 8 0 0
BITMAP
64
64
24
44
44
44
44
38
ENDCHAR
STARTCHAR KHO_KHUAT
ENCODING 163
SWIDTH 500 0
DWIDTH 8 0
BBX 8 8 0 0
BITMAP
52
72
12
22
22
22
22
1C
ENDCHAR
STARTCHAR KHO_KHWAI
ENCODING 164
SWIDTH 500 0
DWIDTH 8 0
BBX 8 8 0 0
BITMAP
3C
42
42
5A
5A
52
52
22
ENDCHAR
STARTCHAR KHO_KHON
ENCODING 165
SWIDTH 500 0
DWIDTH 8 0
BBX 8 8 0 0
BITMAP
34
4A
42
5A
5A
52
52
22
ENDCHAR
STARTCHAR KHO_RAKHANG
ENCODING 166
SWIDTH 500 0
DWIDTH 8 0
BBX 8 8 0 0
BITMAP
52
72
12
22
22
22
72
6C
ENDCHAR
STARTCHAR NGO_NGU
ENCODING 167
SWIDTH 500 0
DWIDTH 8 0
BBX 8 8 0 0
BITMAP
0C
0C
04
04
44
24
14
0C
ENDCHAR
STARTCHAR CHO_CHAN
ENCODING 168
SWIDTH 500 0
DWIDTH 8 0
BBX 8 8 0 0
BITMAP
3C
42
02
1A
1A
0A
0A
0C
ENDCHAR
STARTCHAR CHO_CHING
ENCODING 169
SWIDTH 500 0
DWIDTH 8 0
BBX 8 8 0 0
BITMAP
38
44
04
64
64
24
2E
36
ENDCHAR
STARTCHAR CHO_CHANG
ENCODING 170
SWIDTH 500 0
DWIDTH 8 0
BBX 8 10 0 0
BITMAP
04
04
64
68
24
44
44
44
44
38
ENDCHAR
STARTCHAR SO_SO
ENCODING 171
SWIDTH 500 0
DWIDTH 8 0
BBX 8 10 0 0
BITMAP
02
02
52
74
12
22
22
22
22
1C
ENDCHAR
STARTCHAR CHO_CHOE
ENCODING 172
SWIDTH 500 0
DWIDTH 8 0
BBX 8 8 0 0
BITMAP
39
45
25
45
45
45
6F
6D
ENDCHAR
STARTCHAR YO_YING
ENCODING 173
SWIDTH 500 0
DWIDTH 8 0
BBX 8 9 0 -1
BITMAP
32
4A
2A
4A
4A
4A
6E
68
0E
ENDCHAR
STARTCHAR DO_CHADA
ENCODING 174
SWIDTH 500 0
DWIDTH 8 0
BBX 6 10 1 -2
BITMAP
78
84
C4
44
44
44
C4
D4
24
58
ENDCHAR
STARTCHAR TO_PATAK
ENCODING 175
SWIDTH 500 0
DWIDTH 8 0
BBX 6 10 1 -2
BITMAP
78
84
C4
44
44
44
C4
D4
3C
54
ENDCHAR
STARTCHAR THO_THAN
ENCODING 176
SWIDTH 500 0
DWIDTH 8 0
BBX 5 10 1 -2
BITMAP
78
80
70
08
68
68
18
08
A8
58
ENDCHAR
STARTCHAR THO_NANGMONTHO
ENCODING 177
SWIDTH 500 0
DWIDTH 8 0
BBX 8 8 0 0
BITMAP
54
7A
12
22
22
22
22
22
ENDCHAR
STARTCHAR THO_PHUTHAO
ENCODING 178
SWIDTH 500 0
DWIDTH 8 0
BBX 8 8 0 0
BITMAP
29
55
45
75
75
55
6F
4D
ENDCHAR
STARTCHAR NO_NEN
ENCODING 179
SWIDTH 500 0
DWIDTH 8 0
BBX 8 8 0 0
BITMAP
32
4A
2A
4A
4A
4A
6F
6B
ENDCHAR
STARTCHAR DO_DEK
ENCODING 180
SWIDTH 500 0
DWIDTH 8 0
BBX 8 8 0 0
BITMAP
3C
42
42
5A
5A
4A
52
22
ENDCHAR
STARTCHAR TO_TAO
ENCODING 181
SWIDTH 500 0
DWIDTH 8 0
BBX 8 8 0 0
BITMAP
34
4A
42
5A
5A
4A
52
22
ENDCHAR
STARTCHAR THO_THUNG
ENCODING 182
SWIDTH 500 0
DWIDTH 8 0
BBX 8 8 0 0
BITMAP
3C
42
62
22
22
22
32
32
ENDCHAR
STARTCHAR THO_THAHAN
ENCODING 183
SWIDTH 500 0
DWIDTH 8 0
BBX 8 8 0 0
BITMAP
64
6A
32
22
22
22
22
22
ENDCHAR
STARTCHAR THO_THONG
ENCODING 184
SWIDTH 500 0
DWIDTH 8 0
BBX 8 8 0 0
BITMAP
3C
40
78
24
24
24
24
18
ENDCHAR
STARTCHAR NO_NU
ENCODING 185
SWIDTH 500 0
DWIDTH 8 0
BBX 8 8 0 0
BITMAP
64
64
24
44
44
44
4E
36
ENDCHAR
STARTCHAR BO_BAIMAI
ENCODING 186
SWIDTH 500 0
DWIDTH 8 0
BBX 8 8 0 0
BITMAP
62
62
22
22
22
22
22
1C
ENDCHAR
STARTCHAR PO_PLA
ENCODING 187
SWIDTH 500 0
DWIDTH 8 0
BBX 8 10 0 0
BITMAP
02
02
62
62
22
22
22
22
22
1C
ENDCHAR
STARTCHAR PHO_PHUNG
ENCODING 188
SWIDTH 500 0
DWIDTH 8 0
BBX 8 8 0 0
BITMAP
62
62
42
4A
4A
4A
4A
34
ENDCHAR
STARTCHAR FO_FA
ENCODING 189
SWIDTH 500 0
DWIDTH 8 0
BBX 8 10 0 0
BITMAP
02
02
62
62
42
4A
4A
4A
4A
34
ENDCHAR
STARTCHAR PHO_PHAN
ENCODING 190
SWIDTH 500 0
DWIDTH 8 0
BBX 8 8 0 0
BITMAP
6A
6A
2A
2A
2A
2A
2A
14
ENDCHAR
STARTCHAR FO_FAN
ENCODING 191
SWIDTH 500 0
DWIDTH 8 0
BBX 8 10 0 0
BITMAP
02
02
6A
6A
2A
2A
2A
2A
2A
14
ENDCHAR
STARTCHAR PHO_SAMPHAO
ENCODING 192
SWIDTH 500 0
DWIDTH 8 0
BBX 8 8 0 0
BITMAP
3C
42
62
22
22
22
62
62
ENDCHAR
STARTCHAR MO_MA
ENCODING 193
SWIDTH 500 0
DWIDTH 8 0
BBX 8 8 0 0
BITMAP
62
62
22
22
22
22
72
6C
ENDCHAR
STARTCHAR YO_YAK
ENCODING 194
SWIDTH 500 0
DWIDTH 8 0
BBX 8 8 0 0
BITMAP
62
62
42
32
42
42
42
3C
ENDCHAR
STARTCHAR RO_RUA
ENCODING 195
SWIDTH 500 0
DWIDTH 8 0
BBX 8 8 0 0
BITMAP
3C
40
78
04
04
04
0C
0C
ENDCHAR
STARTCHAR RU
ENCODING 196
SWIDTH 500 0
DWIDTH 8 0
BBX 8 10 0 -2
BITMAP
3C
42
62
22
22
22
32
32
02
02
ENDCHAR
STARTCHAR LO_LING
ENCODING 197
SWIDTH 500 0
DWIDTH 8 0
BBX 8 8 0 0
BITMAP
3C
42
02
1A
26
22
32
32
ENDCHAR
STARTCHAR LU
ENCODING 198
SWIDTH 500 0
DWIDTH 8 0
BBX 8 10 0 -2
BITMAP
3C
42
62
22
22
22
62
62
02
02
ENDCHAR
STARTCHAR WO_WAEN
ENCODING 199
SWIDTH 500 0
DWIDTH 8 0
BBX 8 8 0 0
BITMAP
38
44
04
04
04
04
0C
0C
ENDCHAR
STARTCHAR SO_SALA
ENCODING 200
SWIDTH 500 0
DWIDTH 8 0
BBX 8 10 0 0
BITMAP
02
02
3C
42
42
5A
5A
52
52
22
ENDCHAR
STARTCHAR SO_RUSI
ENCODING 201
SWIDTH 500 0
DWIDTH 8 0
BBX 8 8 0 0
BITMAP
62
62
22
2A
2E
22
22
1C
ENDCHAR
STARTCHAR SO_SUA
ENCODING 202
SWIDTH 500 0
DWIDTH 8 0
BBX 8 10 0 0
BITMAP
02
02
3C
42
02
1A
26
22
32
32
ENDCHAR
STARTCHAR HO_HIP
ENCODING 203
SWIDTH 500 0
DWIDTH 8 0
BBX 8 8 0 0
BITMAP
66
66
24
2A
32
22
22
22
ENDCHAR
STARTCHAR LO_CHULA
ENCODING 204
SWIDTH 500 0
DWIDTH 8 0
BBX 8 10 0 0
BITMAP
02
02
6C
62
2A
2A
2A
2A
2A
14
ENDCHAR
STARTCHAR O_ANG
ENCODING 205
SWIDTH 500 0
DWIDTH 8 0
BBX 8 8 0 0
BITMAP
3C
42
02
32
32
22
22
1C
ENDCHAR
STARTCHAR HO_NOK_HUK
ENCODING 206
SWIDTH 500 0
DWIDTH 8 0
BBX 8 10 0 0
BITMAP
02
02
3C
7A
02
32
32
22
22
1C
ENDCHAR
STARTCHAR PAI_YAN_NOI
ENCODING 207
SWIDTH 500 0
DWIDTH 8 0
BBX 8 8 0 0
BITMAP
6C
74
04
04
04
04
04
08
ENDCHAR
STARTCHAR SARA_A
ENCODING 208
SWIDTH 500 0
DWIDTH 8 0
BBX 4 5 2 2
BITMAP
D0
E0
00
D0
E0
ENDCHAR
STARTCHAR MAI_HAN-AKAT
ENCODING 209
SWIDTH 500 0
DWIDTH 8 0
BBX 8 2 0 10
BITMAP
31
3E
ENDCHAR
STARTCHAR SARA_AA
ENCODING 210
SWIDTH 500 0
DWIDTH 8 0
BBX 8 8 0 0
BITMAP
38
44
04
04
04
04
04
04
ENDCHAR
STARTCHAR SARA_AM
ENCODING 211
SWIDTH 500 0
DWIDTH 8 0
BBX 8 11 0 0
BITMAP
60
60
00
1C
22
02
02
02
02
02
02
ENDCHAR
STARTCHAR SARA_I
ENCODING 212
SWIDTH 500 0
DWIDTH 8 0
BBX 6 1 1 10
BITMAP
FC
ENDCHAR
STARTCHAR SARA_II
ENCODING 213
SWIDTH 500 0
DWIDTH 8 0
BBX 8 2 0 10
BITMAP
02
7E
ENDCHAR
STARTCHAR SARA_UE
ENCODING 214
SWIDTH 500 0
DWIDTH 8 0
BBX 8 2 0 10
BITMAP
06
7E
ENDCHAR
STARTCHAR SARA_UEE
ENCODING 215
SWIDTH 500 0
DWIDTH 8 0
BBX 8 2 0 10
BITMAP
0A
7E
ENDCHAR
STARTCHAR SARA_U
ENCODING 216
SWIDTH 500 0
DWIDTH 8 0
BBX 8 2 0 -3
BITMAP
06
02
ENDCHAR
STARTCHAR SARA_UU
ENCODING 217
SWIDTH 500 0
DWIDTH 8 0
BBX 8 2 0 -3
BITMAP
1A
0E
ENDCHAR
STARTCHAR PHINTHU
ENCODING 218
SWIDTH 500 0
DWIDTH 8 0
BBX 8 2 0 -3
BITMAP
0C
0C
ENDCHAR
STARTCHAR BAHT
ENCODING 223
SWIDTH 500 0
DWIDTH 8 0
BBX 8 11 0 -1
BITMAP
18
7C
5A
5A
5A
7C
5A
5A
5A
7C
18
ENDCHAR
STARTCHAR SARA_E
ENCODING 224
SWIDTH 500 0
DWIDTH 8 0
BBX 8 8 0 0
BITMAP
10
10
10
10
10
10
18
18
ENDCHAR
STARTCHAR SARA_AE
ENCODING 225
SWIDTH 500 0
DWIDTH 8 0
BBX 8 8 0 0
BITMAP
24
24
24
24
24
24
36
36
ENDCHAR
STARTCHAR SARA_O
ENCODING 226
SWIDTH 500 0
DWIDTH 8 0
BBX 8 11 0 0
BITMAP
3E
40
7C
04
04
04
04
04
04
06
06
ENDCHAR
STARTCHAR SARA_MAI_MUAN
ENCODING 227
SWIDTH 500 0
DWIDTH 8 0
BBX 8 11 0 0
BITMAP
38
44
54
34
04
04
04
04
04
06
06
ENDCHAR
STARTCHAR SARA_MAI_MALAI
ENCODING 228
SWIDTH 500 0
DWIDTH 8 0
BBX 8 11 0 0
BITMAP
6C
14
04
04
04
04
04
04
04
06
06
ENDCHAR
STARTCHAR LAK_KHANG_YAO
ENCODING 229
SWIDTH 500 0
DWIDTH 8 0
BBX 8 10 0 -2
BITMAP
38
44
04
04
04
04
04
04
04
04
ENDCHAR
STARTCHAR MAI_YAMOK
ENCODING 230
SWIDTH 500 0
DWIDTH 8 0
BBX 8 10 0 -2
BITMAP
74
6A
02
02
02
02
02
02
04
08
ENDCHAR
STARTCHAR MAI_TAI_KHU
ENCODING 231
SWIDTH 500 0
DWIDTH 8 0
BBX 8 4 0 10
BITMAP
02
3C
54
2C
ENDCHAR
STARTCHAR MAI_EK
ENCODING 232
SWIDTH 500 0
DWIDTH 8 0
BBX 8 3 0 13
BITMAP
02
02
02
ENDCHAR
STARTCHAR MAI_THO
ENCODING 233
SWIDTH 500 0
DWIDTH 8 0
BBX 8 3 0 13
BITMAP
18
09
1E
ENDCHAR
STARTCHAR MAI_TRI
ENCODING 234
SWIDTH 500 0
DWIDTH 8 0
BBX 8 3 0 13
BITMAP
28
55
66
ENDCHAR
STARTCHAR MAI_CHATTAWA
ENCODING 235
SWIDTH 500 0
DWIDTH 8 0
BBX 8 3 0 13
BITMAP
02
07
02
ENDCHAR
STARTCHAR THANTHAKHAT
ENCODING 236
SWIDTH 500 0
DWIDTH 8 0
BBX 8 3 0 13
BITMAP
03
04
06
ENDCHAR
STARTCHAR NIKKHAHIT
ENCODING 237
SWIDTH 500 0
DWIDTH 8 0
BBX 2 2 5 13
BITMAP
C0
C0
ENDCHAR
STARTCHAR YAMAKKAN
ENCODING 238
SWIDTH 500 0
DWIDTH 8 0
BBX 8 4 0 9
BITMAP
07
04
0A
0C
ENDCHAR
STARTCHAR FONGMAN
ENCODING 239
SWIDTH 500 0
DWIDTH 8 0
BBX 8 6 0 0
BITMAP
3C
42
5A
5A
42
3C
ENDCHAR
STARTCHAR ZERO
ENCODING 240
SWIDTH 500 0
DWIDTH 8 0
BBX 8 7 0 0
BITMAP
3C
42
42
42
42
42
3C
ENDCHAR
STARTCHAR ONE
ENCODING 241
SWIDTH 500 0
DWIDTH 8 0
BBX 8 7 0 0
BITMAP
3C
42
42
5A
3A
02
3C
ENDCHAR
STARTCHAR TWO
ENCODING 242
SWIDTH 500 0
DWIDTH 8 0
BBX 8 9 0 0
BITMAP
40
40
4A
56
52
5A
5A
42
3C
ENDCHAR
STARTCHAR THREE
ENCODING 243
SWIDTH 500 0
DWIDTH 8 0
BBX 8 7 0 0
BITMAP
34
4A
4A
4A
4A
62
62
ENDCHAR
STARTCHAR FOUR
ENCODING 244
SWIDTH 500 0
DWIDTH 8 0
BBX 8 9 0 0
BITMAP
02
02
3C
40
40
4C
4C
48
3E
ENDCHAR
STARTCHAR FIVE
ENCODING 245
SWIDTH 500 0
DWIDTH 8 0
BBX 8 9 0 0
BITMAP
02
1A
3C
40
40
4C
4C
48
3E
ENDCHAR
STARTCHAR SIX
ENCODING 246
SWIDTH 500 0
DWIDTH 8 0
BBX 8 8 0 0
BITMAP
40
2C
12
02
02
32
32
3C
ENDCHAR
STARTCHAR SEVEN
ENCODING 247
SWIDTH 500 0
DWIDTH 8 0
BBX 8 9 0 0
BITMAP
02
02
2A
5A
4A
4A
4A
6A
6C
ENDCHAR
STARTCHAR EIGHT
ENCODING 248
SWIDTH 500 0
DWIDTH 8 0
BBX 8 8 0 0
BITMAP
03
3C
40
40
46
56
52
6E
ENDCHAR
STARTCHAR NINE
ENCODING 249
SWIDTH 500 0
DWIDTH 8 0
BBX 8 9 0 0
BITMAP
02
02
1A
34
50
48
48
64
64
ENDCHAR
STARTCHAR ANGKHANKHU
ENCODING 250
SWIDTH 500 0
DWIDTH 8 0
BBX 6 8 1 0
BITMAP
D4
F4
14
14
14
14
14
28
ENDCHAR
STARTCHAR KHOMUT
ENCODING 251
SWIDTH 500 0
DWIDTH 8 0
BBX 7 8 1 0
BITMAP
C0
C0
A0
A8
AE
B0
A0
40
ENDCHAR
ENDFONT
